# Made in Blockbench 4.11.2
mtllib mechanical_cooler.mtl

o cube
v 0.6875 0.0625 0.6875
v 0.6875 0.0625 0.3125
v 0.6875 0 0.6875
v 0.6875 0 0.3125
v 0.3125 0.0625 0.6875
v 0.3125 0.0625 0.3125
v 0.3125 0 0.6875
v 0.3125 0 0.3125
v 0.125 0 0.875
v 0.125 0.25 0.875
v 0.125 0.25 0.125
v 0.125 0 0.125
v 0.875 0.25 0.125
v 0.875 0 0.125
v 0.875 0.25 0.875
v 0.875 0 0.875
v 0.9375 0.3125 0.9375
v 0.9375 0.875 0.9375
v 0.0625 0.875 0.9375
v 0.0625 0.3125 0.9375
v 0.0625 0.25 0.875
v 0.9375 0.25 0.875
v 0.9375 0.9375 1
v 0.0625 0.9375 1
v 0.9375 0.3125 0.0625
v 0.9375 0.875 0.0625
v 0.9375 0.875 0.9375
v 0.9375 0.3125 0.9375
v 0.875 0.25 0.9375
v 0.875 0.25 0.0625
v 1 0.9375 0.0625
v 1 0.9375 0.9375
v 0.0625 0.3125 0.0625
v 0.0625 0.875 0.0625
v 0.9375 0.875 0.0625
v 0.9375 0.3125 0.0625
v 0.9375 0.25 0.125
v 0.0625 0.25 0.125
v 0.0625 0.9375 0
v 0.9375 0.9375 0
v 0.0625 0.3125 0.9375
v 0.0625 0.875 0.9375
v 0.0625 0.875 0.0625
v 0.0625 0.3125 0.0625
v 0.125 0.25 0.0625
v 0.125 0.25 0.9375
v 0 0.9375 0.9375
v 0 0.9375 0.0625
v 0.875 0 0.875
v 1 0 1
v 1 0.3125 1
v 0.875 0.3125 0.875
v 0.875 0 0.125
v 1 0 0
v 1 0.3125 0
v 0.875 0.3125 0.125
v 0.125 0 0.125
v 0 0 0
v 0 0.3125 0
v 0.125 0.3125 0.125
v 0.125 0 0.875
v 0 0 1
v 0 0.3125 1
v 0.125 0.3125 0.875
v 0.9375 0.3125 0.9375
v 0.0625 0.3125 0.9375
v 0.0625 0.875 0.9375
v 0.9375 0.875 0.9375
v 0.9375 0.25 0.875
v 0.0625 0.25 0.875
v 0.0625 0.9375 1
v 0.9375 0.9375 1
v 0.9375 0.3125 0.0625
v 0.9375 0.3125 0.9375
v 0.9375 0.875 0.9375
v 0.9375 0.875 0.0625
v 0.875 0.25 0.0625
v 0.875 0.25 0.9375
v 1 0.9375 0.9375
v 1 0.9375 0.0625
v 0.0625 0.3125 0.0625
v 0.9375 0.3125 0.0625
v 0.9375 0.875 0.0625
v 0.0625 0.875 0.0625
v 0.0625 0.25 0.125
v 0.9375 0.25 0.125
v 0.9375 0.9375 0
v 0.0625 0.9375 0
v 0.0625 0.3125 0.9375
v 0.0625 0.3125 0.0625
v 0.0625 0.875 0.0625
v 0.0625 0.875 0.9375
v 0.125 0.25 0.9375
v 0.125 0.25 0.0625
v 0 0.9375 0.0625
v 0 0.9375 0.9375
v 0.875 0 0.875
v 0.875 0.3125 0.875
v 1 0.3125 1
v 1 0 1
v 0.875 0 0.125
v 0.875 0.3125 0.125
v 1 0.3125 0
v 1 0 0
v 0.125 0 0.125
v 0.125 0.3125 0.125
v 0 0.3125 0
v 0 0 0
v 0.125 0 0.875
v 0.125 0.3125 0.875
v 0 0.3125 1
v 0 0 1
vt 0 0.03125
vt 0.1875 0.03125
vt 0.1875 0
vt 0 0
vt 0 0.03125
vt 0.1875 0.03125
vt 0.1875 0
vt 0 0
vt 0.1875 0.03125
vt 0 0.03125
vt 0 0.21875
vt 0.1875 0.21875
vt 0 0.03125
vt 0.1875 0.03125
vt 0.1875 0
vt 0 0
vt 0 0.03125
vt 0.1875 0.03125
vt 0.1875 0
vt 0 0
vt 0.9375 0.375
vt 0.9375 0.5
vt 0.5625 0.5
vt 0.5625 0.375
vt 0.9375 0.375
vt 0.9375 0.5
vt 0.5625 0.5
vt 0.5625 0.375
vt 0.9375 0.375
vt 0.9375 0.5
vt 0.5625 0.5
vt 0.5625 0.375
vt 0.9375 0.375
vt 0.9375 0.5
vt 0.5625 0.5
vt 0.5625 0.375
vt 0.5625 0
vt 0.9375 0
vt 0.9375 0.375
vt 0.5625 0.375
vt 0.5625 0.5625
vt 0.9375 0.5625
vt 0.9375 0.9375
vt 0.5625 0.9375
vt 0.46875 0.53125
vt 0.46875 0.8125
vt 0.03125 0.8125
vt 0.03125 0.53125
vt 0.03125 0.5
vt 0.46875 0.5
vt 0.46875 0.53125
vt 0.03125 0.53125
vt 0.03125 0.8125
vt 0.46875 0.8125
vt 0.46875 0.84375
vt 0.03125 0.84375
vt 0.46875 0.53125
vt 0.46875 0.8125
vt 0.03125 0.8125
vt 0.03125 0.53125
vt 0.03125 0.5
vt 0.46875 0.5
vt 0.46875 0.53125
vt 0.03125 0.53125
vt 0.03125 0.8125
vt 0.46875 0.8125
vt 0.46875 0.84375
vt 0.03125 0.84375
vt 0.46875 0.53125
vt 0.46875 0.8125
vt 0.03125 0.8125
vt 0.03125 0.53125
vt 0.03125 0.5
vt 0.46875 0.5
vt 0.46875 0.53125
vt 0.03125 0.53125
vt 0.03125 0.8125
vt 0.46875 0.8125
vt 0.46875 0.84375
vt 0.03125 0.84375
vt 0.46875 0.53125
vt 0.46875 0.8125
vt 0.03125 0.8125
vt 0.03125 0.53125
vt 0.03125 0.5
vt 0.46875 0.5
vt 0.46875 0.53125
vt 0.03125 0.53125
vt 0.03125 0.8125
vt 0.46875 0.8125
vt 0.46875 0.84375
vt 0.03125 0.84375
vt 0.90625 0.34375
vt 1 0.34375
vt 1 0.5
vt 0.90625 0.5
vt 0.90625 0.34375
vt 1 0.34375
vt 1 0.5
vt 0.90625 0.5
vt 0.90625 0.34375
vt 1 0.34375
vt 1 0.5
vt 0.90625 0.5
vt 0.90625 0.34375
vt 1 0.34375
vt 1 0.5
vt 0.90625 0.5
vt 0.46875 0.53125
vt 0.03125 0.53125
vt 0.03125 0.8125
vt 0.46875 0.8125
vt 0.03125 0.5
vt 0.03125 0.53125
vt 0.46875 0.53125
vt 0.46875 0.5
vt 0.03125 0.8125
vt 0.03125 0.84375
vt 0.46875 0.84375
vt 0.46875 0.8125
vt 0.46875 0.53125
vt 0.03125 0.53125
vt 0.03125 0.8125
vt 0.46875 0.8125
vt 0.03125 0.5
vt 0.03125 0.53125
vt 0.46875 0.53125
vt 0.46875 0.5
vt 0.03125 0.8125
vt 0.03125 0.84375
vt 0.46875 0.84375
vt 0.46875 0.8125
vt 0.46875 0.53125
vt 0.03125 0.53125
vt 0.03125 0.8125
vt 0.46875 0.8125
vt 0.03125 0.5
vt 0.03125 0.53125
vt 0.46875 0.53125
vt 0.46875 0.5
vt 0.03125 0.8125
vt 0.03125 0.84375
vt 0.46875 0.84375
vt 0.46875 0.8125
vt 0.46875 0.53125
vt 0.03125 0.53125
vt 0.03125 0.8125
vt 0.46875 0.8125
vt 0.03125 0.5
vt 0.03125 0.53125
vt 0.46875 0.53125
vt 0.46875 0.5
vt 0.03125 0.8125
vt 0.03125 0.84375
vt 0.46875 0.84375
vt 0.46875 0.8125
vt 0.90625 0.34375
vt 0.90625 0.5
vt 1 0.5
vt 1 0.34375
vt 0.90625 0.34375
vt 0.90625 0.5
vt 1 0.5
vt 1 0.34375
vt 0.90625 0.34375
vt 0.90625 0.5
vt 1 0.5
vt 1 0.34375
vt 0.90625 0.34375
vt 0.90625 0.5
vt 1 0.5
vt 1 0.34375
vn -1 0 0
vn 1 0 0
vn 0 -1 0
vn 0 0 -1
vn 0 0 1
vn -1 0 0
vn 0 0 -1
vn 1 0 0
vn 0 0 1
vn 0 -1 0
vn 0 1 0
vn 0 0 1
vn 0 -0.7071067811865476 0.7071067811865476
vn 0 -0.7071067811865476 0.7071067811865476
vn 1 0 0
vn 0.7071067811865476 -0.7071067811865476 0
vn 0.7071067811865476 -0.7071067811865476 0
vn 0 0 -1
vn 0 -0.7071067811865476 -0.7071067811865476
vn 0 -0.7071067811865476 -0.7071067811865476
vn -1 0 0
vn -0.7071067811865476 -0.7071067811865476 0
vn -0.7071067811865476 -0.7071067811865476 0
vn -0.7071067811865476 0 0.7071067811865476
vn 0.7071067811865476 0 0.7071067811865476
vn 0.7071067811865476 0 -0.7071067811865476
vn -0.7071067811865476 0 -0.7071067811865476
vn 0 0 -1
vn 0 0.7071067811865476 -0.7071067811865476
vn 0 0.7071067811865476 -0.7071067811865476
vn -1 0 0
vn -0.7071067811865476 0.7071067811865476 0
vn -0.7071067811865476 0.7071067811865476 0
vn 0 0 1
vn 0 0.7071067811865476 0.7071067811865476
vn 0 0.7071067811865476 0.7071067811865476
vn 1 0 0
vn 0.7071067811865476 0.7071067811865476 0
vn 0.7071067811865476 0.7071067811865476 0
vn 0.7071067811865476 0 -0.7071067811865476
vn -0.7071067811865476 0 -0.7071067811865476
vn -0.7071067811865476 0 0.7071067811865476
vn 0.7071067811865476 0 0.7071067811865476
usemtl m_0
f 1/1/1 2/2/1 4/3/1 3/4/1
f 6/5/2 5/6/2 7/7/2 8/8/2
f 6/9/3 2/10/3 1/11/3 5/12/3
f 5/13/4 1/14/4 3/15/4 7/16/4
f 2/17/5 6/18/5 8/19/5 4/20/5
f 9/21/6 10/22/6 11/23/6 12/24/6
f 12/25/7 11/26/7 13/27/7 14/28/7
f 14/29/8 13/30/8 15/31/8 16/32/8
f 16/33/9 15/34/9 10/35/9 9/36/9
f 12/37/10 14/38/10 16/39/10 9/40/10
f 13/41/11 11/42/11 10/43/11 15/44/11
f 17/45/12 18/46/12 19/47/12 20/48/12
f 17/49/13 20/50/13 21/51/13 22/52/13
f 19/53/14 18/54/14 23/55/14 24/56/14
f 25/57/15 26/58/15 27/59/15 28/60/15
f 25/61/16 28/62/16 29/63/16 30/64/16
f 27/65/17 26/66/17 31/67/17 32/68/17
f 33/69/18 34/70/18 35/71/18 36/72/18
f 33/73/19 36/74/19 37/75/19 38/76/19
f 35/77/20 34/78/20 39/79/20 40/80/20
f 41/81/21 42/82/21 43/83/21 44/84/21
f 41/85/22 44/86/22 45/87/22 46/88/22
f 43/89/23 42/90/23 47/91/23 48/92/23
f 49/93/24 50/94/24 51/95/24 52/96/24
f 53/97/25 54/98/25 55/99/25 56/100/25
f 57/101/26 58/102/26 59/103/26 60/104/26
f 61/105/27 62/106/27 63/107/27 64/108/27
f 65/109/28 66/110/28 67/111/28 68/112/28
f 65/113/29 69/114/29 70/115/29 66/116/29
f 67/117/30 71/118/30 72/119/30 68/120/30
f 73/121/31 74/122/31 75/123/31 76/124/31
f 73/125/32 77/126/32 78/127/32 74/128/32
f 75/129/33 79/130/33 80/131/33 76/132/33
f 81/133/34 82/134/34 83/135/34 84/136/34
f 81/137/35 85/138/35 86/139/35 82/140/35
f 83/141/36 87/142/36 88/143/36 84/144/36
f 89/145/37 90/146/37 91/147/37 92/148/37
f 89/149/38 93/150/38 94/151/38 90/152/38
f 91/153/39 95/154/39 96/155/39 92/156/39
f 97/157/40 98/158/40 99/159/40 100/160/40
f 101/161/41 102/162/41 103/163/41 104/164/41
f 105/165/42 106/166/42 107/167/42 108/168/42
f 109/169/43 110/170/43 111/171/43 112/172/43